<?xml version="1.0" standalone="no"?>
<!DOCTYPE svg PUBLIC "-//W3C//DTD SVG 20010904//EN"
 "http://www.w3.org/TR/2001/REC-SVG-20010904/DTD/svg10.dtd">
<svg version="1.0" xmlns="http://www.w3.org/2000/svg"
 width="512.000000pt" height="512.000000pt" viewBox="0 0 512.000000 512.000000"
 preserveAspectRatio="xMidYMid meet">

<g transform="translate(0.000000,512.000000) scale(0.100000,-0.100000)"
fill="#000000" stroke="none">
<path d="M397 4995 c-135 -37 -274 -150 -336 -272 -62 -124 -61 -98 -61 -1098
0 -1003 -1 -978 63 -1099 41 -78 145 -182 223 -223 116 -61 130 -63 755 -63
378 0 576 4 597 11 36 12 58 42 67 93 4 20 12 35 18 33 5 -1 149 -304 319
-672 l308 -670 0 -377 0 -376 24 -29 c60 -70 256 -143 387 -143 237 0 513 272
616 607 25 81 27 101 27 263 0 127 -5 202 -18 275 -23 124 -79 354 -111 458
-14 43 -25 82 -25 87 0 5 300 10 703 13 594 3 710 6 752 19 173 53 290 148
361 294 85 177 67 371 -49 533 l-34 47 35 44 c80 103 118 253 93 372 -25 128
-99 242 -200 310 -25 17 -48 33 -50 34 -2 2 4 21 12 43 79 196 0 450 -174 563
-40 25 -49 37 -45 53 3 11 12 45 20 75 20 69 20 169 1 245 -43 166 -187 298
-370 340 -98 23 -2175 16 -2275 -7 -115 -27 -220 -59 -288 -88 l-66 -28 -30
61 c-37 79 -149 191 -228 229 -114 56 -137 58 -573 57 -298 -1 -412 -4 -448
-14z m915 -233 c78 -38 129 -94 159 -172 18 -48 19 -88 19 -1096 l0 -1045
-513 3 -512 3 -67 33 c-76 37 -120 82 -157 162 l-26 55 -3 883 c-2 581 1 903
8 940 23 129 110 226 230 259 33 9 144 12 420 10 l375 -2 67 -33z m2999 -198
c60 -28 115 -78 142 -128 17 -32 22 -58 21 -116 0 -83 -13 -115 -73 -189 -26
-32 -36 -53 -36 -81 0 -62 24 -85 119 -114 130 -40 194 -112 203 -231 7 -81
-9 -132 -62 -201 -35 -45 -45 -66 -45 -95 0 -56 37 -95 104 -109 185 -38 276
-234 182 -393 -14 -25 -40 -56 -56 -69 -78 -59 -99 -81 -105 -108 -9 -42 17
-88 78 -135 37 -29 62 -60 86 -108 30 -58 34 -76 34 -139 -1 -127 -62 -222
-181 -280 l-67 -33 -795 -5 c-842 -5 -821 -4 -854 -52 -25 -35 -20 -68 38
-251 96 -302 131 -457 148 -662 10 -120 9 -151 -4 -216 -34 -161 -96 -276
-218 -400 -90 -90 -153 -129 -211 -129 -42 0 -123 21 -166 44 l-32 16 -3 363
-3 362 -319 690 c-176 380 -328 702 -338 717 -10 14 -56 46 -103 70 l-85 43 3
905 2 905 85 43 c90 45 238 87 355 101 39 5 529 8 1090 7 1015 -1 1020 -1
1066 -22z"/>
</g>
</svg>
